<svg xmlns="http://www.w3.org/2000/svg" viewBox="0 0 400 400" width="400" height="400">
  <defs>
    <linearGradient id="lotusGrad" x1="0%" y1="0%" x2="100%" y2="100%">
      <stop offset="0%" style="stop-color:#ff9a9e;stop-opacity:0.1"/>
      <stop offset="100%" style="stop-color:#fecfef;stop-opacity:0.1"/>
    </linearGradient>
    <pattern id="dots" x="0" y="0" width="40" height="40" patternUnits="userSpaceOnUse">
      <circle cx="20" cy="20" r="1" fill="#ff9a9e" opacity="0.1"/>
    </pattern>
  </defs>
  
  <!-- Background -->
  <rect width="400" height="400" fill="url(#dots)"/>
  
  <!-- Lotus flower -->
  <g transform="translate(200,200)">
    <!-- Outer petals -->
    <ellipse cx="0" cy="-60" rx="15" ry="40" fill="url(#lotusGrad)" transform="rotate(0)"/>
    <ellipse cx="0" cy="-60" rx="15" ry="40" fill="url(#lotusGrad)" transform="rotate(45)"/>
    <ellipse cx="0" cy="-60" rx="15" ry="40" fill="url(#lotusGrad)" transform="rotate(90)"/>
    <ellipse cx="0" cy="-60" rx="15" ry="40" fill="url(#lotusGrad)" transform="rotate(135)"/>
    <ellipse cx="0" cy="-60" rx="15" ry="40" fill="url(#lotusGrad)" transform="rotate(180)"/>
    <ellipse cx="0" cy="-60" rx="15" ry="40" fill="url(#lotusGrad)" transform="rotate(225)"/>
    <ellipse cx="0" cy="-60" rx="15" ry="40" fill="url(#lotusGrad)" transform="rotate(270)"/>
    <ellipse cx="0" cy="-60" rx="15" ry="40" fill="url(#lotusGrad)" transform="rotate(315)"/>
    
    <!-- Inner petals -->
    <ellipse cx="0" cy="-40" rx="12" ry="30" fill="url(#lotusGrad)" transform="rotate(22.5)"/>
    <ellipse cx="0" cy="-40" rx="12" ry="30" fill="url(#lotusGrad)" transform="rotate(67.5)"/>
    <ellipse cx="0" cy="-40" rx="12" ry="30" fill="url(#lotusGrad)" transform="rotate(112.5)"/>
    <ellipse cx="0" cy="-40" rx="12" ry="30" fill="url(#lotusGrad)" transform="rotate(157.5)"/>
    <ellipse cx="0" cy="-40" rx="12" ry="30" fill="url(#lotusGrad)" transform="rotate(202.5)"/>
    <ellipse cx="0" cy="-40" rx="12" ry="30" fill="url(#lotusGrad)" transform="rotate(247.5)"/>
    <ellipse cx="0" cy="-40" rx="12" ry="30" fill="url(#lotusGrad)" transform="rotate(292.5)"/>
    <ellipse cx="0" cy="-40" rx="12" ry="30" fill="url(#lotusGrad)" transform="rotate(337.5)"/>
    
    <!-- Center -->
    <circle cx="0" cy="0" r="8" fill="#ffa726" opacity="0.2"/>
  </g>
</svg>