<svg xmlns="http://www.w3.org/2000/svg" viewBox="0 0 400 400" width="400" height="400">
  <defs>
    <linearGradient id="mandalaGrad" x1="0%" y1="0%" x2="100%" y2="100%">
      <stop offset="0%" style="stop-color:#667eea;stop-opacity:0.1"/>
      <stop offset="50%" style="stop-color:#764ba2;stop-opacity:0.05"/>
      <stop offset="100%" style="stop-color:#667eea;stop-opacity:0.1"/>
    </linearGradient>
  </defs>
  
  <!-- Background circles -->
  <circle cx="200" cy="200" r="180" fill="none" stroke="url(#mandalaGrad)" stroke-width="1"/>
  <circle cx="200" cy="200" r="140" fill="none" stroke="url(#mandalaGrad)" stroke-width="1"/>
  <circle cx="200" cy="200" r="100" fill="none" stroke="url(#mandalaGrad)" stroke-width="1"/>
  <circle cx="200" cy="200" r="60" fill="none" stroke="url(#mandalaGrad)" stroke-width="1"/>
  <circle cx="200" cy="200" r="30" fill="none" stroke="url(#mandalaGrad)" stroke-width="1"/>
  
  <!-- Mandala petals -->
  <g transform="translate(200,200)">
    <!-- Outer ring -->
    <g stroke="url(#mandalaGrad)" stroke-width="1" fill="none">
      <path d="M 0,-160 Q 20,-140 0,-120 Q -20,-140 0,-160" transform="rotate(0)"/>
      <path d="M 0,-160 Q 20,-140 0,-120 Q -20,-140 0,-160" transform="rotate(30)"/>
      <path d="M 0,-160 Q 20,-140 0,-120 Q -20,-140 0,-160" transform="rotate(60)"/>
      <path d="M 0,-160 Q 20,-140 0,-120 Q -20,-140 0,-160" transform="rotate(90)"/>
      <path d="M 0,-160 Q 20,-140 0,-120 Q -20,-140 0,-160" transform="rotate(120)"/>
      <path d="M 0,-160 Q 20,-140 0,-120 Q -20,-140 0,-160" transform="rotate(150)"/>
      <path d="M 0,-160 Q 20,-140 0,-120 Q -20,-140 0,-160" transform="rotate(180)"/>
      <path d="M 0,-160 Q 20,-140 0,-120 Q -20,-140 0,-160" transform="rotate(210)"/>
      <path d="M 0,-160 Q 20,-140 0,-120 Q -20,-140 0,-160" transform="rotate(240)"/>
      <path d="M 0,-160 Q 20,-140 0,-120 Q -20,-140 0,-160" transform="rotate(270)"/>
      <path d="M 0,-160 Q 20,-140 0,-120 Q -20,-140 0,-160" transform="rotate(300)"/>
      <path d="M 0,-160 Q 20,-140 0,-120 Q -20,-140 0,-160" transform="rotate(330)"/>
    </g>
    
    <!-- Middle ring -->
    <g stroke="url(#mandalaGrad)" stroke-width="1" fill="none">
      <path d="M 0,-120 Q 15,-100 0,-80 Q -15,-100 0,-120" transform="rotate(15)"/>
      <path d="M 0,-120 Q 15,-100 0,-80 Q -15,-100 0,-120" transform="rotate(45)"/>
      <path d="M 0,-120 Q 15,-100 0,-80 Q -15,-100 0,-120" transform="rotate(75)"/>
      <path d="M 0,-120 Q 15,-100 0,-80 Q -15,-100 0,-120" transform="rotate(105)"/>
      <path d="M 0,-120 Q 15,-100 0,-80 Q -15,-100 0,-120" transform="rotate(135)"/>
      <path d="M 0,-120 Q 15,-100 0,-80 Q -15,-100 0,-120" transform="rotate(165)"/>
      <path d="M 0,-120 Q 15,-100 0,-80 Q -15,-100 0,-120" transform="rotate(195)"/>
      <path d="M 0,-120 Q 15,-100 0,-80 Q -15,-100 0,-120" transform="rotate(225)"/>
      <path d="M 0,-120 Q 15,-100 0,-80 Q -15,-100 0,-120" transform="rotate(255)"/>
      <path d="M 0,-120 Q 15,-100 0,-80 Q -15,-100 0,-120" transform="rotate(285)"/>
      <path d="M 0,-120 Q 15,-100 0,-80 Q -15,-100 0,-120" transform="rotate(315)"/>
      <path d="M 0,-120 Q 15,-100 0,-80 Q -15,-100 0,-120" transform="rotate(345)"/>
    </g>
    
    <!-- Inner ring -->
    <g stroke="url(#mandalaGrad)" stroke-width="1" fill="url(#mandalaGrad)">
      <path d="M 0,-80 Q 10,-65 0,-50 Q -10,-65 0,-80" transform="rotate(0)"/>
      <path d="M 0,-80 Q 10,-65 0,-50 Q -10,-65 0,-80" transform="rotate(60)"/>
      <path d="M 0,-80 Q 10,-65 0,-50 Q -10,-65 0,-80" transform="rotate(120)"/>
      <path d="M 0,-80 Q 10,-65 0,-50 Q -10,-65 0,-80" transform="rotate(180)"/>
      <path d="M 0,-80 Q 10,-65 0,-50 Q -10,-65 0,-80" transform="rotate(240)"/>
      <path d="M 0,-80 Q 10,-65 0,-50 Q -10,-65 0,-80" transform="rotate(300)"/>
    </g>
    
    <!-- Center -->
    <circle cx="0" cy="0" r="20" fill="url(#mandalaGrad)" opacity="0.3"/>
    <circle cx="0" cy="0" r="10" fill="url(#mandalaGrad)" opacity="0.5"/>
  </g>
</svg>